<?xml version="1.0" encoding="UTF-8"?>
<svg xmlns="http://www.w3.org/2000/svg" xmlns:xlink="http://www.w3.org/1999/xlink" width="0" height="0">
<symbol id="contacts" viewBox="0 0 24 24"><g fill="none"><path d="m12.594 23.258-.012.002-.071.035-.02.004-.014-.004-.071-.036q-.016-.004-.024.006l-.004.01-.017.428.005.02.01.013.104.074.015.004.012-.004.104-.074.012-.016.004-.017-.017-.427q-.004-.016-.016-.018m.264-.113-.014.002-.184.093-.01.01-.003.011.018.43.005.012.008.008.201.092q.019.005.029-.008l.004-.014-.034-.614q-.005-.019-.02-.022m-.715.002a.02.02 0 0 0-.027.006l-.006.014-.034.614q.001.018.017.024l.015-.002.201-.093.01-.008.003-.011.018-.43-.003-.012-.01-.01z"/><path fill="currentColor" d="M16 7A5 5 0 1 1 6 7a5 5 0 0 1 10 0m-5 6c2.396 0 4.575.694 6.178 1.672.8.488 1.484 1.064 1.978 1.69.486.615.844 1.351.844 2.138 0 .845-.411 1.511-1.003 1.986-.56.45-1.299.748-2.084.956-1.578.417-3.684.558-5.913.558s-4.335-.14-5.913-.558c-.785-.208-1.524-.506-2.084-.956C2.41 20.01 2 19.345 2 18.5c0-.787.358-1.523.844-2.139.494-.625 1.177-1.2 1.978-1.69C6.425 13.695 8.605 13 11 13m10 0a1 1 0 0 1 .117 1.993L21 15h-1a1 1 0 0 1-.117-1.993L20 13zm-3-2a1 1 0 0 1 1-1h2a1 1 0 1 1 0 2h-2a1 1 0 0 1-1-1m0-4a1 1 0 1 0 0 2h3a1 1 0 1 0 0-2z"/></g></symbol>
<symbol id="email" viewBox="0 0 24 24"><path fill="currentColor" d="M21 12.13c-.15.01-.29.06-.39.17l-1 1 2.05 2 1-1c.22-.21.22-.56 0-.77l-1.24-1.23a.56.56 0 0 0-.38-.17m-2 1.75L13 19.94V22h2.06l6.06-6.07M20 4H4a2 2 0 0 0-2 2v12a2 2 0 0 0 2 2h7v-.89l8.24-8.22c.47-.49 1.12-.76 1.8-.76.34 0 .68.06 1 .19V6c0-1.12-.92-2-2.04-2m0 4-8 5-8-5V6l8 5 8-5"/></symbol>
<symbol id="facebook" viewBox="0 0 24 24"><path fill="currentColor" d="M12.001 2c-5.523 0-10 4.477-10 10 0 4.991 3.657 9.128 8.438 9.878v-6.987h-2.54V12h2.54V9.797c0-2.506 1.492-3.89 3.777-3.89 1.094 0 2.238.195 2.238.195v2.46h-1.26c-1.243 0-1.63.771-1.63 1.562V12h2.773l-.443 2.89h-2.33v6.988C18.344 21.129 22 16.992 22 12c0-5.523-4.477-10-10-10"/></symbol>
<symbol id="home" viewBox="0 0 24 24"><path fill="currentColor" d="M12 3s-6.186 5.34-9.643 8.232A1.04 1.04 0 0 0 2 12a1 1 0 0 0 1 1h2v7a1 1 0 0 0 1 1h3a1 1 0 0 0 1-1v-4h4v4a1 1 0 0 0 1 1h3a1 1 0 0 0 1-1v-7h2a1 1 0 0 0 1-1 .98.98 0 0 0-.383-.768C18.184 8.34 12 3 12 3"/></symbol>
<symbol id="instagram" viewBox="0 0 24 24"><path fill="currentColor" fill-rule="evenodd" d="M7.465 1.066C8.638 1.012 9.012 1 12 1s3.362.013 4.534.066 1.972.24 2.672.511c.733.277 1.398.71 1.948 1.27.56.549.992 1.213 1.268 1.947.272.7.458 1.5.512 2.67C22.988 8.639 23 9.013 23 12s-.013 3.362-.066 4.535c-.053 1.17-.24 1.97-.512 2.67a5.4 5.4 0 0 1-1.268 1.949c-.55.56-1.215.992-1.948 1.268-.7.272-1.5.458-2.67.512-1.174.054-1.548.066-4.536.066s-3.362-.013-4.535-.066c-1.17-.053-1.97-.24-2.67-.512a5.4 5.4 0 0 1-1.949-1.268 5.4 5.4 0 0 1-1.269-1.948c-.271-.7-.457-1.5-.511-2.67C1.012 15.361 1 14.987 1 12s.013-3.362.066-4.534.24-1.972.511-2.672a5.4 5.4 0 0 1 1.27-1.948 5.4 5.4 0 0 1 1.947-1.269c.7-.271 1.5-.457 2.67-.511m8.98 1.98c-1.16-.053-1.508-.064-4.445-.064s-3.285.011-4.445.064c-1.073.049-1.655.228-2.043.379-.513.2-.88.437-1.265.822a3.4 3.4 0 0 0-.822 1.265c-.151.388-.33.97-.379 2.043-.053 1.16-.064 1.508-.064 4.445s.011 3.285.064 4.445c.049 1.073.228 1.655.379 2.043.176.477.457.91.822 1.265.355.365.788.646 1.265.822.388.151.97.33 2.043.379 1.16.053 1.507.064 4.445.064s3.285-.011 4.445-.064c1.073-.049 1.655-.228 2.043-.379.513-.2.88-.437 1.265-.822.365-.355.646-.788.822-1.265.151-.388.33-.97.379-2.043.053-1.16.064-1.508.064-4.445s-.011-3.285-.064-4.445c-.049-1.073-.228-1.655-.379-2.043-.2-.513-.437-.88-.822-1.265a3.4 3.4 0 0 0-1.265-.822c-.388-.151-.97-.33-2.043-.379m-5.85 12.345a3.669 3.669 0 0 0 4-5.986 3.67 3.67 0 1 0-4 5.986M8.002 8.002a5.654 5.654 0 1 1 7.996 7.996 5.654 5.654 0 0 1-7.996-7.996m10.906-.814a1.337 1.337 0 1 0-1.89-1.89 1.337 1.337 0 0 0 1.89 1.89" clip-rule="evenodd"/></symbol>
<symbol id="location" viewBox="0 0 14 14"><path fill="currentColor" fill-rule="evenodd" d="M7 0c2.622 0 4.806 2.184 4.806 4.805 0 .856-.294 1.7-.705 2.464-.413.768-.959 1.484-1.501 2.094a16 16 0 0 1-1.521 1.49 9 9 0 0 1-.546.433 3 3 0 0 1-.195.13 1 1 0 0 1-.174.083.54.54 0 0 1-.405-.03 1 1 0 0 1-.098-.053 3 3 0 0 1-.196-.133 9 9 0 0 1-.545-.435A16 16 0 0 1 4.4 9.352c-.542-.612-1.088-1.33-1.5-2.095-.411-.762-.706-1.603-.706-2.452C2.194 2.184 4.378 0 7 0m0 6.24a1.435 1.435 0 1 1 0-2.87 1.435 1.435 0 0 1 0 2.87m3.1 3.916q.276-.31.55-.65h1.343c.2 0 .38.12.46.303l1.497 3.495a.5.5 0 0 1-.46.697H.51a.5.5 0 0 1-.46-.697l1.498-3.495a.5.5 0 0 1 .46-.303h1.355q.266.33.537.636c.662.746 1.33 1.376 1.85 1.821.26.223.487.402.661.528q.13.095.232.157a.7.7 0 0 0 .189.09.55.55 0 0 0 .414-.03q.06-.029.11-.059a3 3 0 0 0 .231-.155c.174-.126.4-.304.661-.525.52-.442 1.19-1.069 1.851-1.813Z" clip-rule="evenodd"/></symbol>
<symbol id="login-user" viewBox="0 0 24 24"><path fill="currentColor" d="M12 2C6.579 2 2 6.579 2 12s4.579 10 10 10 10-4.579 10-10S17.421 2 12 2m0 5c1.727 0 3 1.272 3 3s-1.273 3-3 3c-1.726 0-3-1.272-3-3s1.274-3 3-3m-5.106 9.772c.897-1.32 2.393-2.2 4.106-2.2h2c1.714 0 3.209.88 4.106 2.2C15.828 18.14 14.015 19 12 19s-3.828-.86-5.106-2.228"/></symbol>
<symbol id="logout" viewBox="0 0 24 24"><path fill="currentColor" d="M5 11h8v2H5v3l-5-4 5-4zm-1 7h2.708a8 8 0 1 0 0-12H4a9.99 9.99 0 0 1 8-4c5.523 0 10 4.477 10 10s-4.477 10-10 10a9.99 9.99 0 0 1-8-4"/></symbol>
<symbol id="news" viewBox="0 0 28 28"><path fill="currentColor" d="M22 5.75V20.5a.5.5 0 0 0 .992.09L23 20.5V7h1.25a1.75 1.75 0 0 1 1.744 1.606L26 8.75v12a3.25 3.25 0 0 1-3.066 3.245L22.75 24H5.25a3.25 3.25 0 0 1-3.245-3.066L2 20.75v-15a1.75 1.75 0 0 1 1.606-1.744L3.75 4h16.5a1.75 1.75 0 0 1 1.744 1.606zV20.5zM9.747 13.004H7.25a1.75 1.75 0 0 0-1.744 1.606l-.006.144v2.496a1.75 1.75 0 0 0 1.606 1.744L7.25 19h2.497a1.75 1.75 0 0 0 1.744-1.607l.005-.143v-2.496a1.75 1.75 0 0 0-1.606-1.745zM17.75 17.5h-3.5l-.102.007a.75.75 0 0 0 0 1.486l.102.007h3.5l.102-.007a.75.75 0 0 0 0-1.486zm-10.5-2.996h2.497a.25.25 0 0 1 .243.192l.007.058v2.496a.25.25 0 0 1-.193.243l-.057.007H7.25a.25.25 0 0 1-.243-.193L7 17.25v-2.496a.25.25 0 0 1 .193-.244zh2.497zm10.5-1.5h-3.5l-.102.006a.75.75 0 0 0 0 1.487l.102.007h3.5l.102-.007a.75.75 0 0 0 0-1.487zm0-4.507H6.25l-.102.007a.75.75 0 0 0 0 1.486l.102.007h11.5l.102-.007a.75.75 0 0 0 0-1.486z"/></symbol>
<symbol id="phone" viewBox="0 0 512 512"><path fill="currentColor" d="M280 0c128.1 0 232 103.9 232 232 0 13.3-10.7 24-24 24s-24-10.7-24-24c0-101.6-82.4-184-184-184-13.3 0-24-10.7-24-24s10.7-24 24-24m8 192a32 32 0 1 1 0 64 32 32 0 1 1 0-64m-32-72c0-13.3 10.7-24 24-24 75.1 0 136 60.9 136 136 0 13.3-10.7 24-24 24s-24-10.7-24-24c0-48.6-39.4-88-88-88-13.3 0-24-10.7-24-24M117.5 1.4c19.4-5.3 39.7 4.6 47.4 23.2l40 96c6.8 16.3 2.1 35.2-11.6 46.3L144 207.3c33.3 70.4 90.3 127.4 160.7 160.7l40.3-49.3c11.2-13.7 30-18.4 46.3-11.6l96 40c18.6 7.7 28.5 28 23.2 47.4l-24 88C481.8 499.9 466 512 448 512 200.6 512 0 311.4 0 64c0-18 12.1-33.8 29.5-38.6z"/></symbol>
<symbol id="random" viewBox="0 0 1792 1600"><path fill="currentColor" d="M666 449q-60 92-137 273-22-45-37-72.5T451.5 586t-51-56.5-63-35T256 480H32q-14 0-23-9t-9-23V256q0-14 9-23t23-9h224q250 0 410 225m1126 799q0 14-9 23l-320 320q-9 9-23 9-13 0-22.5-9.5t-9.5-22.5v-192q-32 0-85 .5t-81 1-73-1-71-5-64-10.5-63-18.5-58-28.5-59-40-55-53.5-56-69.5q59-93 136-273 22 45 37 72.5t40.5 63.5 51 56.5 63 35 81.5 14.5h256V928q0-14 9-23t23-9q12 0 24 10l319 319q9 9 9 23m0-896q0 14-9 23l-320 320q-9 9-23 9-13 0-22.5-9.5T1408 672V480h-256q-48 0-87 15t-69 45-51 61.5-45 77.5q-32 62-78 171-29 66-49.5 111t-54 105-64 100-74 83-90 68.5-106.5 42-128 16.5H32q-14 0-23-9t-9-23v-192q0-14 9-23t23-9h224q48 0 87-15t69-45 51-61.5 45-77.5q32-62 78-171 29-66 49.5-111t54-105 64-100 74-83 90-68.5 106.5-42 128-16.5h256V32q0-14 9-23t23-9q12 0 24 10l319 319q9 9 9 23"/></symbol>
<symbol id="rocket" viewBox="0 0 24 24"><path fill="currentColor" fill-rule="evenodd" d="M20.337 3.664c.213.212.354.486.404.782.294 1.711.657 5.195-.906 6.76-1.77 1.768-8.485 5.517-10.611 6.683a.99.99 0 0 1-1.176-.173l-.882-.88-.877-.884a.99.99 0 0 1-.173-1.177c1.165-2.126 4.913-8.841 6.682-10.611 1.562-1.563 5.046-1.198 6.757-.904.296.05.57.191.782.404M5.407 7.576l4-.341-2.69 4.48-2.857-.334a.996.996 0 0 1-.565-1.694zm11.357 7.02-.34 4-2.111 2.113a.996.996 0 0 1-1.69-.565l-.422-2.807zm.84-6.21a1.99 1.99 0 1 1-3.98 0 1.99 1.99 0 0 1 3.98 0" clip-rule="evenodd"/></symbol>
<symbol id="search" viewBox="0 0 24 24"><path fill="currentColor" d="m19.6 21-6.3-6.3q-.75.6-1.725.95T9.5 16q-2.725 0-4.612-1.888T3 9.5t1.888-4.612T9.5 3t4.613 1.888T16 9.5q0 1.1-.35 2.075T14.7 13.3l6.3 6.3zM9.5 14q1.875 0 3.188-1.312T14 9.5t-1.312-3.187T9.5 5 6.313 6.313 5 9.5t1.313 3.188T9.5 14"/></symbol>
<symbol id="image18" width="24" height="24"><path fill="currentColor" d="M9 16.5q-1.05 0-1.775-.725T6.5 14t.725-1.775T9 11.5t1.775.725T11.5 14t-.725 1.775T9 16.5M5 22q-.825 0-1.412-.587T3 20V6q0-.825.588-1.412T5 4h1V2h2v2h8V2h2v2h1q.825 0 1.413.588T21 6v14q0 .825-.587 1.413T19 22zm0-2h14V10H5z"/></symbol>
<symbol id="twitter" viewBox="0 0 24 24"><path fill="currentColor" d="m17.687 3.063-4.996 5.711-4.32-5.711H2.112l7.477 9.776-7.086 8.099h3.034l5.469-6.25 4.78 6.25h6.102l-7.794-10.304 6.625-7.571zm-1.064 16.06L5.654 4.782h1.803l10.846 14.34z"/></symbol>
<symbol id="youtube" viewBox="0 0 576 512"><path fill="currentColor" d="M549.655 124.083c-6.281-23.65-24.787-42.276-48.284-48.597C458.781 64 288 64 288 64S117.22 64 74.629 75.486c-23.497 6.322-42.003 24.947-48.284 48.597-11.412 42.867-11.412 132.305-11.412 132.305s0 89.438 11.412 132.305c6.281 23.65 24.787 41.5 48.284 47.821C117.22 448 288 448 288 448s170.78 0 213.371-11.486c23.497-6.321 42.003-24.171 48.284-47.821 11.412-42.867 11.412-132.305 11.412-132.305s0-89.438-11.412-132.305m-317.51 213.508V175.185l142.739 81.205z"/></symbol>
</svg>